<svg xmlns="http://www.w3.org/2000/svg" width="154.742" height="12" viewBox="0 0 154.742 12"><g transform="translate(77.371 6)"><g transform="translate(-77.371 -6)"><path d="M0,.084H4.906c3.184,0,5.324,2.3,5.324,5.823a5.59,5.59,0,0,1-2,4.632,5.674,5.674,0,0,1-3.506,1.046H0ZM4.519,9.19c1.864,0,2.83-1.175,2.83-3.283,0-2.089-1.011-3.441-2.8-3.441h-1.7V9.19Z" transform="translate(0 0.141)"/><path d="M3.99.084h8.717v2.35H6.836v2.06H11.87V6.712H6.836V9.174H12.8v2.411H3.99Z" transform="translate(6.712 0.141)"/><path d="M7.284,8.094h2.862c.129,1.159.885,1.644,2.253,1.644.933,0,1.848-.338,1.848-1.207,0-.917-.931-1.11-2.508-1.5-2-.467-4.1-1.076-4.1-3.489,0-2.462,1.993-3.538,4.568-3.538,2.492,0,4.423,1.124,4.536,3.538H13.957c-.113-.885-.786-1.384-1.848-1.384-1,0-1.658.435-1.658,1.078,0,.8.885,1,2.607,1.384,2.138.5,4.069,1.156,4.069,3.618,0,2.414-2.06,3.747-4.713,3.747C9.357,11.988,7.348,10.639,7.284,8.094Z" transform="translate(12.253 0.012)"/><path d="M12.525,10.375A6.345,6.345,0,0,1,10.98,6.016a6.256,6.256,0,0,1,1.706-4.487A5.347,5.347,0,0,1,16.626,0c2.958,0,4.729,1.577,5.1,3.988H18.957A2.119,2.119,0,0,0,16.723,2.35c-1.9,0-2.846,1.577-2.846,3.667,0,2.108,1.092,3.667,2.894,3.667a2.358,2.358,0,0,0,2.492-2.009V7.641H17.109V5.549H21.9v6.177h-2l-.161-1.384h-.032a3.591,3.591,0,0,1-3.264,1.641A5.152,5.152,0,0,1,12.525,10.375Z" transform="translate(18.47 0)"/><path d="M15.45.084h5.5c2.285,0,4.023,1.175,4.023,3.312a2.753,2.753,0,0,1-2,2.784v.048A2.3,2.3,0,0,1,24.65,8.337c.241,1.513.08,2.958.483,3.1v.145H22.365c-.306-.177-.257-1.526-.435-2.669a1.684,1.684,0,0,0-1.912-1.641H18.3v4.31H15.45Zm4.986,5.083c1.127,0,1.7-.531,1.7-1.4,0-.837-.547-1.432-1.639-1.432H18.3v2.83Z" transform="translate(25.989 0.141)"/><path d="M23.1.084h2.926l4.152,11.5H27.184l-.676-2.073H22.488l-.66,2.073H18.966Zm2.749,7.384-.869-2.781c-.19-.6-.448-1.628-.448-1.628H24.5s-.271,1.03-.467,1.628l-.882,2.781Z" transform="translate(31.904 0.141)"/><path d="M23.208.084H26.07l3.409,5.775c.177.322.789,1.464.789,1.464H30.3s-.032-1.381-.032-1.786V.084h2.781v11.5H30.187L26.81,5.891c-.193-.3-.821-1.542-.821-1.542h-.032s.032,1.481.032,1.88v5.356H23.208Z" transform="translate(39.04 0.141)"/><path d="M28.6,10.375A6.344,6.344,0,0,1,27.06,6.016a6.266,6.266,0,0,1,1.7-4.487A5.358,5.358,0,0,1,32.706,0c2.958,0,4.726,1.577,5.1,3.988H35.037A2.12,2.12,0,0,0,32.8,2.35c-1.9,0-2.846,1.577-2.846,3.667,0,2.108,1.094,3.667,2.894,3.667a2.359,2.359,0,0,0,2.494-2.009V7.641H33.186V5.549h4.793v6.177H35.986l-.161-1.384h-.032a3.594,3.594,0,0,1-3.264,1.641A5.158,5.158,0,0,1,28.6,10.375Z" transform="translate(45.519 0)"/><path d="M31.53.084h8.717v2.35H34.376v2.06H39.41V6.712H34.376V9.174h5.968v2.411H31.53Z" transform="translate(53.039 0.141)"/><path d="M34.824,8.094h2.862c.129,1.159.885,1.644,2.253,1.644.933,0,1.848-.338,1.848-1.207,0-.917-.931-1.11-2.508-1.5-2-.467-4.1-1.076-4.1-3.489,0-2.462,1.993-3.538,4.568-3.538,2.492,0,4.423,1.124,4.536,3.538H41.5c-.113-.885-.789-1.384-1.851-1.384-1,0-1.658.435-1.658,1.078,0,.8.885,1,2.607,1.384,2.138.5,4.069,1.156,4.069,3.618,0,2.414-2.06,3.747-4.713,3.747C36.9,11.988,34.888,10.639,34.824,8.094Z" transform="translate(58.58 0.012)"/><path d="M38.644,7.781h1.392c.19,1.915,1.363,2.913,3.5,2.913,1.569,0,2.693-.711,2.693-2.122,0-1.553-1.363-1.918-3.39-2.36-2-.443-3.7-1.014-3.7-3.149,0-1.872,1.55-3,3.849-3,2.835,0,4,1.44,4.291,3.532H45.929a2.61,2.61,0,0,0-2.916-2.425c-1.534,0-2.548.652-2.548,1.824,0,1.282,1.266,1.66,2.961,1.993,2.2.445,4.214.984,4.214,3.535,0,2.122-1.727,3.31-4.165,3.31C40.291,11.836,38.77,10.061,38.644,7.781Z" transform="translate(65.006 0.113)"/><path d="M41.634.149H50.6V1.4H46.829V11.476H45.4V1.4H41.634Z" transform="translate(70.035 0.251)"/><path d="M45.2,7.817V.149h1.427V7.675c0,1.931,1.092,2.755,2.961,2.755,1.789,0,2.867-.823,2.867-2.755V.149h1.427V7.817c0,2.738-1.918,3.835-4.342,3.835C47.066,11.653,45.2,10.556,45.2,7.817Z" transform="translate(76.029 0.251)"/><path d="M48.92.149h4.12c3.406,0,5.021,2.315,5.021,5.7s-1.727,5.624-5.131,5.624H48.92Zm3.962,10.074c2.661,0,3.723-1.709,3.723-4.372s-.952-4.466-3.613-4.466H50.347v8.838Z" transform="translate(82.291 0.251)"/><path d="M52.62.149h1.427V11.476H52.62Z" transform="translate(88.515 0.251)"/><path d="M53.56,5.962c0-3.39,2.122-5.906,5.544-5.906s5.541,2.516,5.541,5.906-2.122,5.909-5.541,5.909S53.56,9.35,53.56,5.962Zm9.629,0c0-2.661-1.424-4.672-4.085-4.672S55.016,3.3,55.016,5.962s1.427,4.656,4.088,4.656S63.189,8.623,63.189,5.962Z" transform="translate(90.097 0.094)"/></g></g></svg>